<svg width="163" height="61" viewBox="0 0 163 61" fill="none" xmlns="http://www.w3.org/2000/svg">
<rect x="1" y="8" width="52" height="52" fill="#1B2027"/>
<path d="M25.8693 37.285L14.0648 25.4806L14.0397 35.6023L9.19238 35.5772V17.1924H27.5772L27.6274 22.0649H17.4806L29.285 33.8693L25.8693 37.285Z" fill="white"/>
<path d="M67.809 22.286C66.8557 22.286 65.9793 22.1173 65.18 21.78C64.3807 21.4353 63.7353 20.9257 63.244 20.251C62.76 19.5763 62.507 18.733 62.485 17.721H64.531C64.531 18.3297 64.6777 18.8283 64.971 19.217C65.2717 19.6057 65.6677 19.8953 66.159 20.086C66.6503 20.2693 67.193 20.361 67.787 20.361C68.3883 20.361 68.92 20.2693 69.382 20.086C69.844 19.9027 70.1997 19.657 70.449 19.349C70.7057 19.041 70.834 18.689 70.834 18.293C70.834 17.7577 70.669 17.3287 70.339 17.006C70.009 16.676 69.5067 16.3973 68.832 16.17L66.225 15.202C65.103 14.784 64.2487 14.3037 63.662 13.761C63.0753 13.211 62.782 12.4483 62.782 11.473C62.782 10.3657 63.2147 9.46733 64.08 8.778C64.9453 8.08133 66.1627 7.733 67.732 7.733C69.2207 7.733 70.3757 8.07767 71.197 8.767C72.0257 9.45633 72.4987 10.395 72.616 11.583H70.559C70.4563 10.9817 70.174 10.505 69.712 10.153C69.2573 9.801 68.5973 9.625 67.732 9.625C66.896 9.625 66.2433 9.80833 65.774 10.175C65.3047 10.5343 65.07 10.989 65.07 11.539C65.07 11.9937 65.2167 12.3567 65.51 12.628C65.8107 12.8993 66.2763 13.145 66.907 13.365L69.877 14.454C70.8963 14.8133 71.692 15.2973 72.264 15.906C72.836 16.5147 73.122 17.2883 73.122 18.227C73.122 19.019 72.9167 19.7193 72.506 20.328C72.0953 20.9367 71.494 21.417 70.702 21.769C69.91 22.1137 68.9457 22.286 67.809 22.286ZM75.1386 22L79.9346 7.986H82.5196L87.1726 22H84.9726L83.8836 18.656H78.4716L77.3386 22H75.1386ZM78.9996 17.05H83.3666L81.1886 10.505L78.9996 17.05ZM89.8171 7.986H92.2041L98.9911 18.854H98.8261V7.986H100.916V22H98.6941L91.5771 10.648H91.9071V22H89.8171V7.986ZM105.211 7.986H109.501C110.924 7.986 112.16 8.27567 113.208 8.855C114.264 9.427 115.086 10.2373 115.672 11.286C116.259 12.3347 116.552 13.5703 116.552 14.993C116.552 16.4083 116.259 17.6403 115.672 18.689C115.086 19.7377 114.264 20.5517 113.208 21.131C112.16 21.7103 110.924 22 109.501 22H105.211V7.986ZM107.301 9.867V20.152H109.501C110.499 20.152 111.353 19.9283 112.064 19.481C112.783 19.0337 113.337 18.4213 113.725 17.644C114.114 16.8667 114.308 15.983 114.308 14.993C114.308 14.003 114.114 13.123 113.725 12.353C113.337 11.5757 112.783 10.967 112.064 10.527C111.353 10.087 110.499 9.867 109.501 9.867H107.301ZM119.971 22V7.986H128.771V9.79H122.061V14.058H128.375V15.862H122.061V20.174H128.771V22H119.971ZM137.247 22.286C136.293 22.286 135.417 22.1173 134.618 21.78C133.818 21.4353 133.173 20.9257 132.682 20.251C132.198 19.5763 131.945 18.733 131.923 17.721H133.969C133.969 18.3297 134.115 18.8283 134.409 19.217C134.709 19.6057 135.105 19.8953 135.597 20.086C136.088 20.2693 136.631 20.361 137.225 20.361C137.826 20.361 138.358 20.2693 138.82 20.086C139.282 19.9027 139.637 19.657 139.887 19.349C140.143 19.041 140.272 18.689 140.272 18.293C140.272 17.7577 140.107 17.3287 139.777 17.006C139.447 16.676 138.944 16.3973 138.27 16.17L135.663 15.202C134.541 14.784 133.686 14.3037 133.1 13.761C132.513 13.211 132.22 12.4483 132.22 11.473C132.22 10.3657 132.652 9.46733 133.518 8.778C134.383 8.08133 135.6 7.733 137.17 7.733C138.658 7.733 139.813 8.07767 140.635 8.767C141.463 9.45633 141.936 10.395 142.053 11.583H139.997C139.894 10.9817 139.612 10.505 139.15 10.153C138.695 9.801 138.035 9.625 137.17 9.625C136.334 9.625 135.681 9.80833 135.212 10.175C134.742 10.5343 134.508 10.989 134.508 11.539C134.508 11.9937 134.654 12.3567 134.948 12.628C135.248 12.8993 135.714 13.145 136.345 13.365L139.315 14.454C140.334 14.8133 141.13 15.2973 141.702 15.906C142.274 16.5147 142.559 17.2883 142.559 18.227C142.559 19.019 142.354 19.7193 141.944 20.328C141.533 20.9367 140.932 21.417 140.14 21.769C139.348 22.1137 138.383 22.286 137.247 22.286ZM146.182 7.986H148.272V14.025H154.85V7.986H156.929V22H154.85V15.84H148.272V22H146.182V7.986Z" fill="#0F172A"/>
<path d="M90.412 59H74.176C72.424 59 70.84 58.676 69.424 58.028C68.008 57.38 66.784 56.48 65.752 55.328C64.744 54.176 63.964 52.844 63.412 51.332C62.86 49.796 62.584 48.152 62.584 46.4C62.584 44.672 62.86 43.052 63.412 41.54C63.964 40.004 64.744 38.66 65.752 37.508C66.784 36.332 68.008 35.42 69.424 34.772C70.84 34.124 72.424 33.8 74.176 33.8H90.412V37.4H74.176C72.52 37.4 71.092 37.808 69.892 38.624C68.716 39.416 67.804 40.496 67.156 41.864C66.508 43.232 66.184 44.744 66.184 46.4C66.184 48.056 66.508 49.568 67.156 50.936C67.804 52.28 68.716 53.36 69.892 54.176C71.092 54.992 72.52 55.4 74.176 55.4H90.412V59ZM113.075 59H109.475V46.4C109.475 44.744 109.067 43.232 108.251 41.864C107.459 40.496 106.379 39.416 105.011 38.624C103.643 37.808 102.131 37.4 100.475 37.4H98.5306V59H94.9306V33.8H100.475C102.755 33.8 104.843 34.364 106.739 35.492C108.659 36.62 110.171 38.096 111.275 39.92C112.379 38.096 113.879 36.62 115.775 35.492C117.695 34.364 119.795 33.8 122.075 33.8H127.619V59H124.019V37.4H122.075C120.419 37.4 118.907 37.808 117.539 38.624C116.195 39.416 115.115 40.496 114.299 41.864C113.483 43.232 113.075 44.744 113.075 46.4V59ZM161.681 51.8C161.681 53.12 161.357 54.332 160.709 55.436C160.061 56.516 159.197 57.38 158.117 58.028C157.037 58.676 155.825 59 154.481 59H132.593V55.4H154.481C155.489 55.4 156.341 55.052 157.037 54.356C157.733 53.636 158.081 52.784 158.081 51.8C158.081 50.816 157.733 49.976 157.037 49.28C156.341 48.56 155.489 48.2 154.481 48.2H139.793C138.473 48.2 137.261 47.876 136.157 47.228C135.077 46.58 134.213 45.716 133.565 44.636C132.917 43.532 132.593 42.32 132.593 41C132.593 39.68 132.917 38.48 133.565 37.4C134.213 36.296 135.077 35.42 136.157 34.772C137.261 34.124 138.473 33.8 139.793 33.8H159.881V37.4H139.793C138.809 37.4 137.957 37.76 137.237 38.48C136.541 39.176 136.193 40.016 136.193 41C136.193 41.984 136.541 42.836 137.237 43.556C137.957 44.252 138.809 44.6 139.793 44.6H154.481C155.825 44.6 157.037 44.924 158.117 45.572C159.197 46.22 160.061 47.096 160.709 48.2C161.357 49.28 161.681 50.48 161.681 51.8Z" fill="#020617"/>
</svg>
